<svg width="24" height="24" viewBox="0 0 24 24" fill="none" xmlns="http://www.w3.org/2000/svg">
<path d="M13.9737 3.00006V7.00006C13.9737 7.26528 14.0789 7.51963 14.2661 7.70717C14.4532 7.8947 14.7071 8.00006 14.9718 8.00006H18.9643M13.9737 3.00006H6.98685C6.45741 3.00006 5.94966 3.21077 5.57529 3.58585C5.20092 3.96092 4.9906 4.46963 4.9906 5.00006V7.00006M13.9737 3.00006L18.9643 8.00006M18.9643 8.00006V10.0001M18.9643 19.0001C18.9643 19.5305 18.754 20.0392 18.3796 20.4143C18.0053 20.7893 17.4975 21.0001 16.9681 21.0001H6.98685C6.45741 21.0001 5.94966 20.7893 5.57529 20.4143C5.20092 20.0392 4.9906 19.5305 4.9906 19.0001M4.9906 16.0001H5.00058M4.9906 13.0001H5.00058M4.9906 10.0001H5.00058M18.9643 13.0001H18.9743M18.9643 16.0001H18.9743" stroke="#121926" stroke-width="1.5" stroke-linecap="round" stroke-linejoin="round"/>
</svg>
