<svg width="20" height="19" viewBox="0 0 20 19" fill="none" xmlns="http://www.w3.org/2000/svg">
<path d="M0.994385 18H18.9606M16.9644 18V14M16.9644 14C17.4938 14 18.0016 13.7893 18.3759 13.4142C18.7503 13.0391 18.9606 12.5304 18.9606 12V10C18.9606 9.46957 18.7503 8.96086 18.3759 8.58579C18.0016 8.21071 17.4938 8 16.9644 8C16.4349 8 15.9272 8.21071 15.5528 8.58579C15.1784 8.96086 14.9681 9.46957 14.9681 10V12C14.9681 12.5304 15.1784 13.0391 15.5528 13.4142C15.9272 13.7893 16.4349 14 16.9644 14ZM11.9737 18V4C11.9737 3.20435 11.6583 2.44129 11.0967 1.87868C10.5352 1.31607 9.77353 1 8.97938 1H4.98688C4.19272 1 3.43109 1.31607 2.86954 1.87868C2.30799 2.44129 1.99251 3.20435 1.99251 4V18M6.98313 14V18M5.985 10H7.98125M5.985 6H7.98125" stroke="#364152" stroke-width="1.5" stroke-linecap="round" stroke-linejoin="round"/>
</svg>
