<svg width="24" height="24" viewBox="0 0 24 24" fill="none" xmlns="http://www.w3.org/2000/svg">
<path d="M10.3056 4.31709C10.7308 2.56109 13.2242 2.56109 13.6494 4.31709C13.7132 4.58089 13.8382 4.82587 14.0144 5.03209C14.1905 5.23831 14.4128 5.39995 14.6631 5.50384C14.9134 5.60773 15.1846 5.65094 15.4547 5.62996C15.7249 5.60898 15.9862 5.52439 16.2175 5.38309C17.7576 4.44309 19.5213 6.20909 18.5831 7.75309C18.4422 7.98475 18.358 8.24643 18.3371 8.51686C18.3162 8.7873 18.3593 9.05886 18.4628 9.30947C18.5664 9.56008 18.7276 9.78267 18.9332 9.95914C19.1388 10.1356 19.383 10.261 19.6461 10.3251C21.3988 10.7511 21.3988 13.2491 19.6461 13.6751C19.3828 13.739 19.1383 13.8643 18.9324 14.0408C18.7266 14.2173 18.5653 14.44 18.4616 14.6907C18.3579 14.9415 18.3147 15.2133 18.3357 15.4839C18.3566 15.7545 18.441 16.0163 18.5821 16.2481C19.5203 17.7911 17.7576 19.5581 16.2165 18.6181C15.9853 18.477 15.7241 18.3925 15.4542 18.3716C15.1843 18.3507 14.9132 18.3938 14.6631 18.4976C14.4129 18.6014 14.1908 18.7628 14.0146 18.9688C13.8385 19.1748 13.7133 19.4195 13.6494 19.6831C13.2242 21.4391 10.7308 21.4391 10.3056 19.6831C10.2418 19.4193 10.1168 19.1743 9.94062 18.9681C9.76446 18.7619 9.54219 18.6002 9.2919 18.4963C9.0416 18.3925 8.77036 18.3492 8.50025 18.3702C8.23014 18.3912 7.96879 18.4758 7.73747 18.6171C6.19736 19.5571 4.43368 17.7911 5.37192 16.2471C5.51275 16.0154 5.59704 15.7538 5.61794 15.4833C5.63883 15.2129 5.59574 14.9413 5.49216 14.6907C5.38859 14.4401 5.22745 14.2175 5.02185 14.041C4.81625 13.8646 4.57198 13.7392 4.30891 13.6751C2.55621 13.2491 2.55621 10.7511 4.30891 10.3251C4.57222 10.2612 4.81674 10.1359 5.02257 9.95938C5.22841 9.78289 5.38974 9.5602 5.49343 9.30944C5.59713 9.05868 5.64026 8.78693 5.61932 8.51631C5.59838 8.24569 5.51395 7.98384 5.37291 7.75209C4.43468 6.20909 6.19736 4.44209 7.73847 5.38209C8.73659 5.99009 10.0302 5.45209 10.3056 4.31709Z" stroke="#121926" stroke-width="1.5" stroke-linecap="round" stroke-linejoin="round"/>
<path d="M8.98313 12.0001C8.98313 12.7957 9.29861 13.5588 9.86016 14.1214C10.4217 14.684 11.1833 15.0001 11.9775 15.0001C12.7717 15.0001 13.5333 14.684 14.0948 14.1214C14.6564 13.5588 14.9719 12.7957 14.9719 12.0001C14.9719 11.2044 14.6564 10.4414 14.0948 9.87877C13.5333 9.31616 12.7717 9.00009 11.9775 9.00009C11.1833 9.00009 10.4217 9.31616 9.86016 9.87877C9.29861 10.4414 8.98313 11.2044 8.98313 12.0001Z" stroke="#121926" stroke-width="1.5" stroke-linecap="round" stroke-linejoin="round"/>
</svg>
